<mxfile host="app.diagrams.net" modified="2024-02-05T15:44:22.067Z" agent="Mozilla/5.0 (Windows NT 10.0; Win64; x64) AppleWebKit/537.36 (KHTML, like Gecko) Chrome/120.0.0.0 Safari/537.36" etag="NxxgthxeIYLfJ3Eqx6ID" version="23.0.2" type="device">
  <diagram name="Page-1" id="2YBvvXClWsGukQMizWep">
    <mxGraphModel dx="1434" dy="866" grid="1" gridSize="10" guides="1" tooltips="1" connect="1" arrows="1" fold="1" page="1" pageScale="1" pageWidth="850" pageHeight="1100" math="0" shadow="0">
      <root>
        <mxCell id="0" />
        <mxCell id="1" parent="0" />
        <mxCell id="l-rinapcZIfxHJ7ZMDAc-74" value="&lt;b&gt;LayerMetadata&lt;/b&gt;" style="swimlane;fontStyle=0;childLayout=stackLayout;horizontal=1;startSize=26;fillColor=none;horizontalStack=0;resizeParent=1;resizeParentMax=0;resizeLast=0;collapsible=1;marginBottom=0;whiteSpace=wrap;html=1;" parent="1" vertex="1">
          <mxGeometry x="50" y="30" width="280" height="140" as="geometry" />
        </mxCell>
        <mxCell id="l-rinapcZIfxHJ7ZMDAc-75" value="+ version: u8&lt;br&gt;+ optimizeMetadata: bool&lt;br style=&quot;border-color: var(--border-color);&quot;&gt;+ name: string | u32&lt;br style=&quot;border-color: var(--border-color);&quot;&gt;+ layerExtent: u32&lt;br&gt;+ numFeatures: u32&lt;br&gt;+ numColumns: u32&lt;br&gt;+ columnMetadata: list&amp;lt;ColumnMetadata&amp;gt;" style="text;strokeColor=none;fillColor=none;align=left;verticalAlign=top;spacingLeft=4;spacingRight=4;overflow=hidden;rotatable=0;points=[[0,0.5],[1,0.5]];portConstraint=eastwest;whiteSpace=wrap;html=1;" parent="l-rinapcZIfxHJ7ZMDAc-74" vertex="1">
          <mxGeometry y="26" width="280" height="114" as="geometry" />
        </mxCell>
        <mxCell id="Jd3EaR2XywZya7DofICR-31" value="" style="endArrow=open;html=1;endSize=12;startArrow=diamondThin;startSize=14;startFill=1;edgeStyle=orthogonalEdgeStyle;align=left;verticalAlign=bottom;rounded=0;entryX=0.45;entryY=0.008;entryDx=0;entryDy=0;entryPerimeter=0;" parent="l-rinapcZIfxHJ7ZMDAc-74" target="Jd3EaR2XywZya7DofICR-1" edge="1">
          <mxGeometry x="-1" y="3" relative="1" as="geometry">
            <mxPoint x="110" y="140" as="sourcePoint" />
            <mxPoint x="250" y="140" as="targetPoint" />
          </mxGeometry>
        </mxCell>
        <mxCell id="l-rinapcZIfxHJ7ZMDAc-76" value="&amp;lt;&amp;lt;enumeration&amp;gt;&amp;gt;&lt;br style=&quot;border-color: var(--border-color); font-weight: 700;&quot;&gt;&lt;b&gt;DataType&lt;/b&gt;" style="swimlane;fontStyle=0;childLayout=stackLayout;horizontal=1;startSize=40;fillColor=none;horizontalStack=0;resizeParent=1;resizeParentMax=0;resizeLast=0;collapsible=1;marginBottom=0;whiteSpace=wrap;html=1;" parent="1" vertex="1">
          <mxGeometry x="446.13" y="30" width="140" height="300" as="geometry" />
        </mxCell>
        <mxCell id="l-rinapcZIfxHJ7ZMDAc-77" value="boolean&lt;br&gt;i32&lt;br&gt;u32&lt;br&gt;i64&lt;br style=&quot;border-color: var(--border-color);&quot;&gt;u64&lt;br&gt;float&lt;br&gt;double&lt;br&gt;string&lt;br&gt;geometry&lt;br&gt;geometry_m&lt;br&gt;geometry_z&lt;br&gt;geometry_zm&lt;br&gt;binary&lt;br&gt;timestamp&lt;br&gt;date&lt;br&gt;list&lt;br&gt;struct" style="text;strokeColor=none;fillColor=none;align=left;verticalAlign=top;spacingLeft=4;spacingRight=4;overflow=hidden;rotatable=0;points=[[0,0.5],[1,0.5]];portConstraint=eastwest;whiteSpace=wrap;html=1;" parent="l-rinapcZIfxHJ7ZMDAc-76" vertex="1">
          <mxGeometry y="40" width="140" height="260" as="geometry" />
        </mxCell>
        <mxCell id="l-rinapcZIfxHJ7ZMDAc-87" value="" style="endArrow=open;html=1;endSize=12;startArrow=diamondThin;startSize=14;startFill=1;edgeStyle=orthogonalEdgeStyle;align=left;verticalAlign=bottom;rounded=0;" parent="1" edge="1">
          <mxGeometry x="-1" y="3" relative="1" as="geometry">
            <mxPoint x="300" y="270" as="sourcePoint" />
            <mxPoint x="440" y="270" as="targetPoint" />
          </mxGeometry>
        </mxCell>
        <mxCell id="Jd3EaR2XywZya7DofICR-1" value="&lt;b&gt;ColumnMetadata&lt;/b&gt;" style="swimlane;fontStyle=0;childLayout=stackLayout;horizontal=1;startSize=26;fillColor=none;horizontalStack=0;resizeParent=1;resizeParentMax=0;resizeLast=0;collapsible=1;marginBottom=0;whiteSpace=wrap;html=1;" parent="1" vertex="1">
          <mxGeometry x="60" y="250" width="240" height="110" as="geometry" />
        </mxCell>
        <mxCell id="Jd3EaR2XywZya7DofICR-2" value="+ name: string | u32&lt;br&gt;+ required: bool&lt;br&gt;+ dataType: DataType&lt;br&gt;+ columnType: ColumnType&lt;br&gt;+ streamMetadata: list&amp;lt;StreamMetadata&amp;gt;" style="text;strokeColor=none;fillColor=none;align=left;verticalAlign=top;spacingLeft=4;spacingRight=4;overflow=hidden;rotatable=0;points=[[0,0.5],[1,0.5]];portConstraint=eastwest;whiteSpace=wrap;html=1;" parent="Jd3EaR2XywZya7DofICR-1" vertex="1">
          <mxGeometry y="26" width="240" height="84" as="geometry" />
        </mxCell>
        <mxCell id="Jd3EaR2XywZya7DofICR-17" value="&amp;lt;&amp;lt;enumeration&amp;gt;&amp;gt;&lt;br style=&quot;border-color: var(--border-color); font-weight: 700;&quot;&gt;&lt;b&gt;ColumnType&lt;/b&gt;" style="swimlane;fontStyle=0;childLayout=stackLayout;horizontal=1;startSize=40;fillColor=none;horizontalStack=0;resizeParent=1;resizeParentMax=0;resizeLast=0;collapsible=1;marginBottom=0;whiteSpace=wrap;html=1;" parent="1" vertex="1">
          <mxGeometry x="446.13" y="350" width="140" height="140" as="geometry" />
        </mxCell>
        <mxCell id="Jd3EaR2XywZya7DofICR-18" value="plain&lt;br&gt;dictionary&lt;br&gt;fsst_dictionary&lt;br&gt;localized_dictionary&lt;br&gt;ice&lt;br&gt;ice_morton" style="text;strokeColor=none;fillColor=none;align=left;verticalAlign=top;spacingLeft=4;spacingRight=4;overflow=hidden;rotatable=0;points=[[0,0.5],[1,0.5]];portConstraint=eastwest;whiteSpace=wrap;html=1;" parent="Jd3EaR2XywZya7DofICR-17" vertex="1">
          <mxGeometry y="40" width="140" height="100" as="geometry" />
        </mxCell>
        <mxCell id="Jd3EaR2XywZya7DofICR-19" value="" style="endArrow=open;html=1;endSize=12;startArrow=diamondThin;startSize=14;startFill=1;edgeStyle=orthogonalEdgeStyle;align=left;verticalAlign=bottom;rounded=0;exitX=1;exitY=0.643;exitDx=0;exitDy=0;exitPerimeter=0;" parent="1" source="Jd3EaR2XywZya7DofICR-26" edge="1">
          <mxGeometry x="-1" y="3" relative="1" as="geometry">
            <mxPoint x="308" y="540" as="sourcePoint" />
            <mxPoint x="448" y="540" as="targetPoint" />
            <Array as="points" />
          </mxGeometry>
        </mxCell>
        <mxCell id="Jd3EaR2XywZya7DofICR-25" value="&lt;b&gt;StreamMetadata&lt;/b&gt;" style="swimlane;fontStyle=0;childLayout=stackLayout;horizontal=1;startSize=26;fillColor=none;horizontalStack=0;resizeParent=1;resizeParentMax=0;resizeLast=0;collapsible=1;marginBottom=0;whiteSpace=wrap;html=1;" parent="1" vertex="1">
          <mxGeometry x="60" y="460" width="270" height="120" as="geometry" />
        </mxCell>
        <mxCell id="Jd3EaR2XywZya7DofICR-26" value="+ streamType: StreamType&lt;br&gt;+ streamEncoding: StreamEncoding&lt;br&gt;+ streamName: string | u32 -&amp;gt; only for m-value and localized_dictionary streams&lt;br&gt;+ numValues: u32&lt;br&gt;+ byteLength: u32" style="text;strokeColor=none;fillColor=none;align=left;verticalAlign=top;spacingLeft=4;spacingRight=4;overflow=hidden;rotatable=0;points=[[0,0.5],[1,0.5]];portConstraint=eastwest;whiteSpace=wrap;html=1;" parent="Jd3EaR2XywZya7DofICR-25" vertex="1">
          <mxGeometry y="26" width="270" height="94" as="geometry" />
        </mxCell>
        <mxCell id="Jd3EaR2XywZya7DofICR-32" value="1" style="edgeLabel;resizable=0;html=1;align=left;verticalAlign=top;" parent="1" connectable="0" vertex="1">
          <mxGeometry x="190" y="380" as="geometry">
            <mxPoint x="-15" y="-206" as="offset" />
          </mxGeometry>
        </mxCell>
        <mxCell id="Jd3EaR2XywZya7DofICR-38" value="1..*" style="edgeLabel;resizable=0;html=1;align=right;verticalAlign=top;" parent="1" connectable="0" vertex="1">
          <mxGeometry x="160" y="220" as="geometry" />
        </mxCell>
        <mxCell id="Jd3EaR2XywZya7DofICR-41" value="" style="endArrow=open;html=1;endSize=12;startArrow=diamondThin;startSize=14;startFill=1;edgeStyle=orthogonalEdgeStyle;align=left;verticalAlign=bottom;rounded=0;entryX=0.45;entryY=0.008;entryDx=0;entryDy=0;entryPerimeter=0;" parent="1" edge="1">
          <mxGeometry x="-1" y="3" relative="1" as="geometry">
            <mxPoint x="170" y="360" as="sourcePoint" />
            <mxPoint x="178" y="457" as="targetPoint" />
            <Array as="points">
              <mxPoint x="170" y="390" />
              <mxPoint x="180" y="390" />
              <mxPoint x="180" y="417" />
              <mxPoint x="178" y="417" />
            </Array>
          </mxGeometry>
        </mxCell>
        <mxCell id="Jd3EaR2XywZya7DofICR-42" value="1..*" style="edgeLabel;resizable=0;html=1;align=right;verticalAlign=top;" parent="1" connectable="0" vertex="1">
          <mxGeometry x="170" y="426" as="geometry" />
        </mxCell>
        <mxCell id="Jd3EaR2XywZya7DofICR-43" value="1" style="edgeLabel;resizable=0;html=1;align=right;verticalAlign=top;" parent="1" connectable="0" vertex="1">
          <mxGeometry x="184" y="365" as="geometry" />
        </mxCell>
        <mxCell id="Jd3EaR2XywZya7DofICR-45" value="&amp;lt;&amp;lt;enumeration&amp;gt;&amp;gt;&lt;br style=&quot;border-color: var(--border-color); font-weight: 700;&quot;&gt;&lt;b&gt;StreamEncoding&lt;/b&gt;" style="swimlane;fontStyle=0;childLayout=stackLayout;horizontal=1;startSize=40;fillColor=none;horizontalStack=0;resizeParent=1;resizeParentMax=0;resizeLast=0;collapsible=1;marginBottom=0;whiteSpace=wrap;html=1;" parent="1" vertex="1">
          <mxGeometry x="446.13" y="750" width="140" height="180" as="geometry" />
        </mxCell>
        <mxCell id="Jd3EaR2XywZya7DofICR-46" value="plain&lt;br&gt;varint&lt;br&gt;varint_delta&lt;br&gt;varint_delta_zigzag&lt;br&gt;rle&lt;br&gt;boolean_rle,&lt;br&gt;byte_rle&lt;br&gt;fast_pfor_delta&lt;br&gt;fast_pfor_delta_zigzag&lt;br&gt;" style="text;strokeColor=none;fillColor=none;align=left;verticalAlign=top;spacingLeft=4;spacingRight=4;overflow=hidden;rotatable=0;points=[[0,0.5],[1,0.5]];portConstraint=eastwest;whiteSpace=wrap;html=1;" parent="Jd3EaR2XywZya7DofICR-45" vertex="1">
          <mxGeometry y="40" width="140" height="140" as="geometry" />
        </mxCell>
        <mxCell id="Jd3EaR2XywZya7DofICR-47" value="" style="endArrow=open;html=1;endSize=12;startArrow=diamondThin;startSize=14;startFill=1;edgeStyle=orthogonalEdgeStyle;align=left;verticalAlign=bottom;rounded=0;entryX=0;entryY=0.214;entryDx=0;entryDy=0;entryPerimeter=0;" parent="1" target="Jd3EaR2XywZya7DofICR-46" edge="1">
          <mxGeometry x="-1" y="3" relative="1" as="geometry">
            <mxPoint x="310" y="580" as="sourcePoint" />
            <mxPoint x="448" y="530" as="targetPoint" />
          </mxGeometry>
        </mxCell>
        <mxCell id="Jd3EaR2XywZya7DofICR-48" value="&amp;lt;&amp;lt;enumeration&amp;gt;&amp;gt;&lt;br style=&quot;border-color: var(--border-color); font-weight: 700;&quot;&gt;&lt;b&gt;StreamType&lt;/b&gt;" style="swimlane;fontStyle=0;childLayout=stackLayout;horizontal=1;startSize=40;fillColor=none;horizontalStack=0;resizeParent=1;resizeParentMax=0;resizeLast=0;collapsible=1;marginBottom=0;whiteSpace=wrap;html=1;" parent="1" vertex="1">
          <mxGeometry x="446.13" y="510" width="140" height="230" as="geometry" />
        </mxCell>
        <mxCell id="Jd3EaR2XywZya7DofICR-49" value="present&lt;br&gt;data&lt;br&gt;length&lt;br&gt;dictionary&lt;br&gt;geometry_types&lt;br&gt;geometry_offsets&lt;br&gt;part_offsets&lt;br&gt;ring_offsets&lt;br&gt;vertex_offsets&lt;br&gt;vertex_buffer&lt;br&gt;z_value&lt;br&gt;m_value" style="text;strokeColor=none;fillColor=none;align=left;verticalAlign=top;spacingLeft=4;spacingRight=4;overflow=hidden;rotatable=0;points=[[0,0.5],[1,0.5]];portConstraint=eastwest;whiteSpace=wrap;html=1;" parent="Jd3EaR2XywZya7DofICR-48" vertex="1">
          <mxGeometry y="40" width="140" height="190" as="geometry" />
        </mxCell>
        <mxCell id="Jd3EaR2XywZya7DofICR-50" value="" style="endArrow=open;html=1;endSize=12;startArrow=diamondThin;startSize=14;startFill=1;edgeStyle=orthogonalEdgeStyle;align=left;verticalAlign=bottom;rounded=0;entryX=0.028;entryY=0.071;entryDx=0;entryDy=0;entryPerimeter=0;" parent="1" target="Jd3EaR2XywZya7DofICR-17" edge="1">
          <mxGeometry x="-1" y="3" relative="1" as="geometry">
            <mxPoint x="302" y="360" as="sourcePoint" />
            <mxPoint x="442" y="360" as="targetPoint" />
            <Array as="points" />
          </mxGeometry>
        </mxCell>
        <mxCell id="0JohcG3czfdtflU6FVD1-1" value="&lt;b&gt;LayerMetadata&lt;/b&gt;" style="swimlane;fontStyle=0;childLayout=stackLayout;horizontal=1;startSize=26;fillColor=none;horizontalStack=0;resizeParent=1;resizeParentMax=0;resizeLast=0;collapsible=1;marginBottom=0;whiteSpace=wrap;html=1;" parent="1" vertex="1">
          <mxGeometry x="50" y="1100" width="280" height="150" as="geometry" />
        </mxCell>
        <mxCell id="0JohcG3czfdtflU6FVD1-2" value="+ version: u8&lt;br&gt;+ externalSchema: true&lt;br style=&quot;border-color: var(--border-color);&quot;&gt;+ id: u32&lt;br style=&quot;border-color: var(--border-color);&quot;&gt;+ layerExtent: u32&lt;br&gt;+ numFeatures: u32&lt;br&gt;+ numColumns: u32 -&amp;gt; really needed or detect based on order of the columns?&lt;br&gt;+ fieldMetadata: list&amp;lt;FieldMetadata&amp;gt;" style="text;strokeColor=none;fillColor=none;align=left;verticalAlign=top;spacingLeft=4;spacingRight=4;overflow=hidden;rotatable=0;points=[[0,0.5],[1,0.5]];portConstraint=eastwest;whiteSpace=wrap;html=1;" parent="0JohcG3czfdtflU6FVD1-1" vertex="1">
          <mxGeometry y="26" width="280" height="124" as="geometry" />
        </mxCell>
        <mxCell id="0JohcG3czfdtflU6FVD1-3" value="" style="endArrow=open;html=1;endSize=12;startArrow=diamondThin;startSize=14;startFill=1;edgeStyle=orthogonalEdgeStyle;align=left;verticalAlign=bottom;rounded=0;entryX=0.45;entryY=0.008;entryDx=0;entryDy=0;entryPerimeter=0;" parent="0JohcG3czfdtflU6FVD1-1" target="0JohcG3czfdtflU6FVD1-7" edge="1">
          <mxGeometry x="-1" y="3" relative="1" as="geometry">
            <mxPoint x="111" y="150" as="sourcePoint" />
            <mxPoint x="250" y="140" as="targetPoint" />
          </mxGeometry>
        </mxCell>
        <mxCell id="0JohcG3czfdtflU6FVD1-7" value="&lt;b&gt;FieldMetadata&lt;/b&gt;" style="swimlane;fontStyle=0;childLayout=stackLayout;horizontal=1;startSize=26;fillColor=none;horizontalStack=0;resizeParent=1;resizeParentMax=0;resizeLast=0;collapsible=1;marginBottom=0;whiteSpace=wrap;html=1;" parent="1" vertex="1">
          <mxGeometry x="60" y="1320" width="240" height="110" as="geometry" />
        </mxCell>
        <mxCell id="0JohcG3czfdtflU6FVD1-8" value="+ id: u32 -&amp;gt; really needed?&lt;br&gt;+ numStreams: u32 -&amp;gt; really needed?&lt;br&gt;+ streamMetadata: list&amp;lt;StreamMetadata&amp;gt;" style="text;strokeColor=none;fillColor=none;align=left;verticalAlign=top;spacingLeft=4;spacingRight=4;overflow=hidden;rotatable=0;points=[[0,0.5],[1,0.5]];portConstraint=eastwest;whiteSpace=wrap;html=1;" parent="0JohcG3czfdtflU6FVD1-7" vertex="1">
          <mxGeometry y="26" width="240" height="84" as="geometry" />
        </mxCell>
        <mxCell id="0JohcG3czfdtflU6FVD1-9" value="&amp;lt;&amp;lt;enumeration&amp;gt;&amp;gt;&lt;br style=&quot;border-color: var(--border-color); font-weight: 700;&quot;&gt;&lt;b&gt;ColumnType&lt;/b&gt;" style="swimlane;fontStyle=0;childLayout=stackLayout;horizontal=1;startSize=40;fillColor=none;horizontalStack=0;resizeParent=1;resizeParentMax=0;resizeLast=0;collapsible=1;marginBottom=0;whiteSpace=wrap;html=1;" parent="1" vertex="1">
          <mxGeometry x="446.13" y="1420" width="140" height="110" as="geometry" />
        </mxCell>
        <mxCell id="0JohcG3czfdtflU6FVD1-10" value="plain&lt;br&gt;dictionary&lt;br&gt;fsst_dictionary&lt;br&gt;shared_dictionary&lt;br&gt;" style="text;strokeColor=none;fillColor=none;align=left;verticalAlign=top;spacingLeft=4;spacingRight=4;overflow=hidden;rotatable=0;points=[[0,0.5],[1,0.5]];portConstraint=eastwest;whiteSpace=wrap;html=1;" parent="0JohcG3czfdtflU6FVD1-9" vertex="1">
          <mxGeometry y="40" width="140" height="70" as="geometry" />
        </mxCell>
        <mxCell id="0JohcG3czfdtflU6FVD1-11" value="" style="endArrow=open;html=1;endSize=12;startArrow=diamondThin;startSize=14;startFill=1;edgeStyle=orthogonalEdgeStyle;align=left;verticalAlign=bottom;rounded=0;exitX=1;exitY=0.643;exitDx=0;exitDy=0;exitPerimeter=0;" parent="1" source="0JohcG3czfdtflU6FVD1-13" edge="1">
          <mxGeometry x="-1" y="3" relative="1" as="geometry">
            <mxPoint x="308" y="1610" as="sourcePoint" />
            <mxPoint x="448" y="1610" as="targetPoint" />
            <Array as="points" />
          </mxGeometry>
        </mxCell>
        <mxCell id="0JohcG3czfdtflU6FVD1-12" value="&lt;b&gt;StreamMetadata&lt;/b&gt;" style="swimlane;fontStyle=0;childLayout=stackLayout;horizontal=1;startSize=26;fillColor=none;horizontalStack=0;resizeParent=1;resizeParentMax=0;resizeLast=0;collapsible=1;marginBottom=0;whiteSpace=wrap;html=1;" parent="1" vertex="1">
          <mxGeometry x="60" y="1530" width="270" height="140" as="geometry" />
        </mxCell>
        <mxCell id="0JohcG3czfdtflU6FVD1-13" value="+ streamType: StreamType&lt;br&gt;+ streamEncoding: StreamEncoding&lt;br&gt;+ id: u32&amp;nbsp;&lt;br&gt;+ numValues: u32&lt;br&gt;+ byteLength: u32" style="text;strokeColor=none;fillColor=none;align=left;verticalAlign=top;spacingLeft=4;spacingRight=4;overflow=hidden;rotatable=0;points=[[0,0.5],[1,0.5]];portConstraint=eastwest;whiteSpace=wrap;html=1;" parent="0JohcG3czfdtflU6FVD1-12" vertex="1">
          <mxGeometry y="26" width="270" height="114" as="geometry" />
        </mxCell>
        <mxCell id="0JohcG3czfdtflU6FVD1-14" value="1" style="edgeLabel;resizable=0;html=1;align=left;verticalAlign=top;" parent="1" connectable="0" vertex="1">
          <mxGeometry x="190" y="1450" as="geometry">
            <mxPoint x="-15" y="-206" as="offset" />
          </mxGeometry>
        </mxCell>
        <mxCell id="0JohcG3czfdtflU6FVD1-15" value="1..*" style="edgeLabel;resizable=0;html=1;align=right;verticalAlign=top;" parent="1" connectable="0" vertex="1">
          <mxGeometry x="160" y="1290" as="geometry" />
        </mxCell>
        <mxCell id="0JohcG3czfdtflU6FVD1-16" value="" style="endArrow=open;html=1;endSize=12;startArrow=diamondThin;startSize=14;startFill=1;edgeStyle=orthogonalEdgeStyle;align=left;verticalAlign=bottom;rounded=0;entryX=0.45;entryY=0.008;entryDx=0;entryDy=0;entryPerimeter=0;" parent="1" edge="1">
          <mxGeometry x="-1" y="3" relative="1" as="geometry">
            <mxPoint x="170" y="1430" as="sourcePoint" />
            <mxPoint x="178" y="1527" as="targetPoint" />
            <Array as="points">
              <mxPoint x="170" y="1460" />
              <mxPoint x="180" y="1460" />
              <mxPoint x="180" y="1487" />
              <mxPoint x="178" y="1487" />
            </Array>
          </mxGeometry>
        </mxCell>
        <mxCell id="0JohcG3czfdtflU6FVD1-17" value="1..*" style="edgeLabel;resizable=0;html=1;align=right;verticalAlign=top;" parent="1" connectable="0" vertex="1">
          <mxGeometry x="170" y="1496" as="geometry" />
        </mxCell>
        <mxCell id="0JohcG3czfdtflU6FVD1-18" value="1" style="edgeLabel;resizable=0;html=1;align=right;verticalAlign=top;" parent="1" connectable="0" vertex="1">
          <mxGeometry x="184" y="1435" as="geometry" />
        </mxCell>
        <mxCell id="0JohcG3czfdtflU6FVD1-19" value="&amp;lt;&amp;lt;enumeration&amp;gt;&amp;gt;&lt;br style=&quot;border-color: var(--border-color); font-weight: 700;&quot;&gt;&lt;b&gt;StreamEncoding&lt;/b&gt;" style="swimlane;fontStyle=0;childLayout=stackLayout;horizontal=1;startSize=40;fillColor=none;horizontalStack=0;resizeParent=1;resizeParentMax=0;resizeLast=0;collapsible=1;marginBottom=0;whiteSpace=wrap;html=1;" parent="1" vertex="1">
          <mxGeometry x="446.13" y="1860" width="140" height="240" as="geometry" />
        </mxCell>
        <mxCell id="0JohcG3czfdtflU6FVD1-20" value="plain&lt;br&gt;varint&lt;br&gt;varint_delta&lt;br&gt;varint_delta_zigzag&lt;br&gt;rle&lt;br&gt;boolean_rle,&lt;br&gt;byte_rle&lt;br&gt;fast_pfor_delta&lt;br&gt;fast_pfor_delta_zigzag&lt;br&gt;-&amp;gt; dictionary, fsst ? -&amp;gt; instead of stream type? -&amp;gt; has to be comined with rle" style="text;strokeColor=none;fillColor=none;align=left;verticalAlign=top;spacingLeft=4;spacingRight=4;overflow=hidden;rotatable=0;points=[[0,0.5],[1,0.5]];portConstraint=eastwest;whiteSpace=wrap;html=1;" parent="0JohcG3czfdtflU6FVD1-19" vertex="1">
          <mxGeometry y="40" width="140" height="200" as="geometry" />
        </mxCell>
        <mxCell id="0JohcG3czfdtflU6FVD1-21" value="" style="endArrow=open;html=1;endSize=12;startArrow=diamondThin;startSize=14;startFill=1;edgeStyle=orthogonalEdgeStyle;align=left;verticalAlign=bottom;rounded=0;entryX=0;entryY=0.214;entryDx=0;entryDy=0;entryPerimeter=0;" parent="1" target="0JohcG3czfdtflU6FVD1-20" edge="1">
          <mxGeometry x="-1" y="3" relative="1" as="geometry">
            <mxPoint x="310" y="1650" as="sourcePoint" />
            <mxPoint x="448" y="1600" as="targetPoint" />
          </mxGeometry>
        </mxCell>
        <mxCell id="0JohcG3czfdtflU6FVD1-22" value="&amp;lt;&amp;lt;enumeration&amp;gt;&amp;gt;&lt;br style=&quot;border-color: var(--border-color); font-weight: 700;&quot;&gt;&lt;b&gt;StreamType&lt;/b&gt;" style="swimlane;fontStyle=0;childLayout=stackLayout;horizontal=1;startSize=40;fillColor=none;horizontalStack=0;resizeParent=1;resizeParentMax=0;resizeLast=0;collapsible=1;marginBottom=0;whiteSpace=wrap;html=1;" parent="1" vertex="1">
          <mxGeometry x="446.13" y="1580" width="140" height="270" as="geometry" />
        </mxCell>
        <mxCell id="0JohcG3czfdtflU6FVD1-23" value="present&lt;br&gt;data&lt;br&gt;data_reference or compressed-&amp;gt; for dictionaries like fsst&lt;br&gt;length&lt;br&gt;dictionary&lt;br&gt;symbol_table&lt;br&gt;geometry_types&lt;br&gt;geometry_offsets&lt;br&gt;part_offsets&lt;br&gt;ring_offsets&lt;br&gt;vertex_offsets&lt;br&gt;vertex_buffer&lt;br&gt;z_value" style="text;strokeColor=none;fillColor=none;align=left;verticalAlign=top;spacingLeft=4;spacingRight=4;overflow=hidden;rotatable=0;points=[[0,0.5],[1,0.5]];portConstraint=eastwest;whiteSpace=wrap;html=1;" parent="0JohcG3czfdtflU6FVD1-22" vertex="1">
          <mxGeometry y="40" width="140" height="230" as="geometry" />
        </mxCell>
        <mxCell id="0JohcG3czfdtflU6FVD1-24" value="" style="endArrow=open;html=1;endSize=12;startArrow=diamondThin;startSize=14;startFill=1;edgeStyle=orthogonalEdgeStyle;align=left;verticalAlign=bottom;rounded=0;entryX=0.028;entryY=0.071;entryDx=0;entryDy=0;entryPerimeter=0;" parent="1" target="0JohcG3czfdtflU6FVD1-9" edge="1">
          <mxGeometry x="-1" y="3" relative="1" as="geometry">
            <mxPoint x="302" y="1430" as="sourcePoint" />
            <mxPoint x="442" y="1430" as="targetPoint" />
            <Array as="points" />
          </mxGeometry>
        </mxCell>
        <mxCell id="behlOS7L0J96E-RqEoWm-5" value="Feature Scoped Properties&lt;br&gt;" style="rounded=0;whiteSpace=wrap;html=1;" vertex="1" parent="1">
          <mxGeometry x="990" y="2500" width="550" height="160" as="geometry" />
        </mxCell>
        <mxCell id="behlOS7L0J96E-RqEoWm-6" value="Shared Dictionary" style="rounded=0;whiteSpace=wrap;html=1;" vertex="1" parent="1">
          <mxGeometry x="1120" y="2660" width="120" height="40" as="geometry" />
        </mxCell>
        <mxCell id="behlOS7L0J96E-RqEoWm-7" value="ID" style="rounded=0;whiteSpace=wrap;html=1;" vertex="1" parent="1">
          <mxGeometry x="90" y="2500" width="140" height="160" as="geometry" />
        </mxCell>
        <mxCell id="behlOS7L0J96E-RqEoWm-8" value="Geometry" style="rounded=0;whiteSpace=wrap;html=1;" vertex="1" parent="1">
          <mxGeometry x="230" y="2500" width="590" height="160" as="geometry" />
        </mxCell>
        <mxCell id="behlOS7L0J96E-RqEoWm-11" value="Data" style="rounded=0;whiteSpace=wrap;html=1;" vertex="1" parent="1">
          <mxGeometry x="160" y="2660" width="70" height="120" as="geometry" />
        </mxCell>
        <mxCell id="behlOS7L0J96E-RqEoWm-12" value="GeometryType" style="rounded=0;whiteSpace=wrap;html=1;" vertex="1" parent="1">
          <mxGeometry x="230" y="2660" width="90" height="120" as="geometry" />
        </mxCell>
        <mxCell id="behlOS7L0J96E-RqEoWm-13" value="NumGeometries" style="rounded=0;whiteSpace=wrap;html=1;" vertex="1" parent="1">
          <mxGeometry x="320" y="2660" width="100" height="120" as="geometry" />
        </mxCell>
        <mxCell id="behlOS7L0J96E-RqEoWm-14" value="NumParts" style="rounded=0;whiteSpace=wrap;html=1;" vertex="1" parent="1">
          <mxGeometry x="420" y="2660" width="80" height="120" as="geometry" />
        </mxCell>
        <mxCell id="behlOS7L0J96E-RqEoWm-15" value="NumRings" style="rounded=0;whiteSpace=wrap;html=1;" vertex="1" parent="1">
          <mxGeometry x="500" y="2660" width="70" height="120" as="geometry" />
        </mxCell>
        <mxCell id="behlOS7L0J96E-RqEoWm-16" value="Indices" style="rounded=0;whiteSpace=wrap;html=1;" vertex="1" parent="1">
          <mxGeometry x="570" y="2660" width="70" height="120" as="geometry" />
        </mxCell>
        <mxCell id="behlOS7L0J96E-RqEoWm-17" value="VertexOffsets" style="rounded=0;whiteSpace=wrap;html=1;" vertex="1" parent="1">
          <mxGeometry x="640" y="2660" width="90" height="120" as="geometry" />
        </mxCell>
        <mxCell id="behlOS7L0J96E-RqEoWm-18" value="VertexBuffer" style="rounded=0;whiteSpace=wrap;html=1;" vertex="1" parent="1">
          <mxGeometry x="730" y="2660" width="90" height="120" as="geometry" />
        </mxCell>
        <mxCell id="behlOS7L0J96E-RqEoWm-19" value="Present" style="rounded=0;whiteSpace=wrap;html=1;" vertex="1" parent="1">
          <mxGeometry x="90" y="2660" width="70" height="120" as="geometry" />
        </mxCell>
        <mxCell id="behlOS7L0J96E-RqEoWm-20" value="Vertex Scoped Properties&lt;br&gt;(Z-Values)&amp;nbsp;" style="rounded=0;whiteSpace=wrap;html=1;" vertex="1" parent="1">
          <mxGeometry x="820" y="2500" width="170" height="160" as="geometry" />
        </mxCell>
        <mxCell id="behlOS7L0J96E-RqEoWm-21" value="Present" style="rounded=0;whiteSpace=wrap;html=1;" vertex="1" parent="1">
          <mxGeometry x="820" y="2700" width="80" height="80" as="geometry" />
        </mxCell>
        <mxCell id="behlOS7L0J96E-RqEoWm-22" value="Data" style="rounded=0;whiteSpace=wrap;html=1;" vertex="1" parent="1">
          <mxGeometry x="900" y="2700" width="90" height="80" as="geometry" />
        </mxCell>
        <mxCell id="behlOS7L0J96E-RqEoWm-23" value="Present&lt;br&gt;" style="rounded=0;whiteSpace=wrap;html=1;direction=south;" vertex="1" parent="1">
          <mxGeometry x="990" y="2700" width="70" height="80" as="geometry" />
        </mxCell>
        <mxCell id="behlOS7L0J96E-RqEoWm-24" value="Data&lt;br&gt;" style="rounded=0;whiteSpace=wrap;html=1;" vertex="1" parent="1">
          <mxGeometry x="1060" y="2700" width="60" height="80" as="geometry" />
        </mxCell>
        <mxCell id="behlOS7L0J96E-RqEoWm-25" value="Length" style="rounded=0;whiteSpace=wrap;html=1;" vertex="1" parent="1">
          <mxGeometry x="1120" y="2700" width="60" height="80" as="geometry" />
        </mxCell>
        <mxCell id="behlOS7L0J96E-RqEoWm-26" value="Dictionary" style="rounded=0;whiteSpace=wrap;html=1;" vertex="1" parent="1">
          <mxGeometry x="1180" y="2700" width="60" height="80" as="geometry" />
        </mxCell>
        <mxCell id="behlOS7L0J96E-RqEoWm-27" value="Data (Offsets)" style="rounded=0;whiteSpace=wrap;html=1;" vertex="1" parent="1">
          <mxGeometry x="1460" y="2740" width="80" height="40" as="geometry" />
        </mxCell>
        <mxCell id="behlOS7L0J96E-RqEoWm-29" value="Rank" style="rounded=0;whiteSpace=wrap;html=1;" vertex="1" parent="1">
          <mxGeometry x="990" y="2660" width="130" height="40" as="geometry" />
        </mxCell>
        <mxCell id="behlOS7L0J96E-RqEoWm-30" value="Speed" style="rounded=0;whiteSpace=wrap;html=1;" vertex="1" parent="1">
          <mxGeometry x="820" y="2660" width="170" height="40" as="geometry" />
        </mxCell>
        <mxCell id="behlOS7L0J96E-RqEoWm-33" value="Present" style="rounded=0;whiteSpace=wrap;html=1;" vertex="1" parent="1">
          <mxGeometry x="1390" y="2740" width="70" height="40" as="geometry" />
        </mxCell>
        <mxCell id="behlOS7L0J96E-RqEoWm-35" value="Data (Offsets)" style="rounded=0;whiteSpace=wrap;html=1;" vertex="1" parent="1">
          <mxGeometry x="1240" y="2740" width="150" height="40" as="geometry" />
        </mxCell>
        <mxCell id="behlOS7L0J96E-RqEoWm-36" value="en" style="rounded=0;whiteSpace=wrap;html=1;" vertex="1" parent="1">
          <mxGeometry x="1240" y="2700" width="150" height="40" as="geometry" />
        </mxCell>
        <mxCell id="behlOS7L0J96E-RqEoWm-41" value="Name" style="rounded=0;whiteSpace=wrap;html=1;" vertex="1" parent="1">
          <mxGeometry x="1240" y="2660" width="300" height="40" as="geometry" />
        </mxCell>
        <mxCell id="behlOS7L0J96E-RqEoWm-43" value="de" style="rounded=0;whiteSpace=wrap;html=1;" vertex="1" parent="1">
          <mxGeometry x="1390" y="2700" width="150" height="40" as="geometry" />
        </mxCell>
        <mxCell id="behlOS7L0J96E-RqEoWm-97" value="Feature Scoped Properties&lt;br&gt;" style="rounded=0;whiteSpace=wrap;html=1;" vertex="1" parent="1">
          <mxGeometry x="980" y="3140" width="670" height="160" as="geometry" />
        </mxCell>
        <mxCell id="behlOS7L0J96E-RqEoWm-98" value="Shared Dictionary / Symbol Table" style="rounded=0;whiteSpace=wrap;html=1;" vertex="1" parent="1">
          <mxGeometry x="1110" y="3300" width="240" height="40" as="geometry" />
        </mxCell>
        <mxCell id="behlOS7L0J96E-RqEoWm-99" value="Present&lt;br&gt;" style="rounded=0;whiteSpace=wrap;html=1;direction=south;" vertex="1" parent="1">
          <mxGeometry x="980" y="3340" width="70" height="80" as="geometry" />
        </mxCell>
        <mxCell id="behlOS7L0J96E-RqEoWm-100" value="Data&lt;br&gt;" style="rounded=0;whiteSpace=wrap;html=1;" vertex="1" parent="1">
          <mxGeometry x="1050" y="3340" width="60" height="80" as="geometry" />
        </mxCell>
        <mxCell id="behlOS7L0J96E-RqEoWm-101" value="Length (Dictionary)" style="rounded=0;whiteSpace=wrap;html=1;" vertex="1" parent="1">
          <mxGeometry x="1230" y="3340" width="60" height="80" as="geometry" />
        </mxCell>
        <mxCell id="behlOS7L0J96E-RqEoWm-102" value="Dictionary" style="rounded=0;whiteSpace=wrap;html=1;" vertex="1" parent="1">
          <mxGeometry x="1290" y="3340" width="60" height="80" as="geometry" />
        </mxCell>
        <mxCell id="behlOS7L0J96E-RqEoWm-103" value="Rank" style="rounded=0;whiteSpace=wrap;html=1;" vertex="1" parent="1">
          <mxGeometry x="980" y="3300" width="130" height="40" as="geometry" />
        </mxCell>
        <mxCell id="behlOS7L0J96E-RqEoWm-104" value="Length&lt;br&gt;(Symbol Table)" style="rounded=0;whiteSpace=wrap;html=1;" vertex="1" parent="1">
          <mxGeometry x="1110" y="3340" width="60" height="80" as="geometry" />
        </mxCell>
        <mxCell id="behlOS7L0J96E-RqEoWm-105" value="Symbol&lt;br&gt;Table" style="rounded=0;whiteSpace=wrap;html=1;" vertex="1" parent="1">
          <mxGeometry x="1170" y="3340" width="60" height="80" as="geometry" />
        </mxCell>
        <mxCell id="behlOS7L0J96E-RqEoWm-106" value="Data (Offsets)" style="rounded=0;whiteSpace=wrap;html=1;" vertex="1" parent="1">
          <mxGeometry x="1570" y="3380" width="80" height="40" as="geometry" />
        </mxCell>
        <mxCell id="behlOS7L0J96E-RqEoWm-107" value="Present" style="rounded=0;whiteSpace=wrap;html=1;" vertex="1" parent="1">
          <mxGeometry x="1500" y="3380" width="70" height="40" as="geometry" />
        </mxCell>
        <mxCell id="behlOS7L0J96E-RqEoWm-108" value="Data (Offsets)" style="rounded=0;whiteSpace=wrap;html=1;" vertex="1" parent="1">
          <mxGeometry x="1350" y="3380" width="150" height="40" as="geometry" />
        </mxCell>
        <mxCell id="behlOS7L0J96E-RqEoWm-109" value="en" style="rounded=0;whiteSpace=wrap;html=1;" vertex="1" parent="1">
          <mxGeometry x="1350" y="3340" width="150" height="40" as="geometry" />
        </mxCell>
        <mxCell id="behlOS7L0J96E-RqEoWm-110" value="Name" style="rounded=0;whiteSpace=wrap;html=1;" vertex="1" parent="1">
          <mxGeometry x="1350" y="3300" width="300" height="40" as="geometry" />
        </mxCell>
        <mxCell id="behlOS7L0J96E-RqEoWm-111" value="de" style="rounded=0;whiteSpace=wrap;html=1;" vertex="1" parent="1">
          <mxGeometry x="1500" y="3340" width="150" height="40" as="geometry" />
        </mxCell>
        <mxCell id="behlOS7L0J96E-RqEoWm-112" value="Feature Scoped Properties&lt;br&gt;" style="rounded=0;whiteSpace=wrap;html=1;" vertex="1" parent="1">
          <mxGeometry x="985" y="2820" width="625" height="160" as="geometry" />
        </mxCell>
        <mxCell id="behlOS7L0J96E-RqEoWm-113" value="Shared Symbol Table&amp;nbsp;" style="rounded=0;whiteSpace=wrap;html=1;" vertex="1" parent="1">
          <mxGeometry x="1115" y="2980" width="130" height="40" as="geometry" />
        </mxCell>
        <mxCell id="behlOS7L0J96E-RqEoWm-114" value="Present&lt;br&gt;" style="rounded=0;whiteSpace=wrap;html=1;direction=south;" vertex="1" parent="1">
          <mxGeometry x="985" y="3020" width="70" height="80" as="geometry" />
        </mxCell>
        <mxCell id="behlOS7L0J96E-RqEoWm-115" value="Data&lt;br&gt;" style="rounded=0;whiteSpace=wrap;html=1;" vertex="1" parent="1">
          <mxGeometry x="1055" y="3020" width="60" height="80" as="geometry" />
        </mxCell>
        <mxCell id="behlOS7L0J96E-RqEoWm-116" value="Rank" style="rounded=0;whiteSpace=wrap;html=1;" vertex="1" parent="1">
          <mxGeometry x="985" y="2980" width="130" height="40" as="geometry" />
        </mxCell>
        <mxCell id="behlOS7L0J96E-RqEoWm-117" value="Length&lt;br&gt;" style="rounded=0;whiteSpace=wrap;html=1;" vertex="1" parent="1">
          <mxGeometry x="1115" y="3020" width="60" height="80" as="geometry" />
        </mxCell>
        <mxCell id="behlOS7L0J96E-RqEoWm-118" value="Symbol&lt;br&gt;Table" style="rounded=0;whiteSpace=wrap;html=1;" vertex="1" parent="1">
          <mxGeometry x="1175" y="3020" width="70" height="80" as="geometry" />
        </mxCell>
        <mxCell id="behlOS7L0J96E-RqEoWm-119" value="Data&lt;br&gt;(compressed)&amp;nbsp;" style="rounded=0;whiteSpace=wrap;html=1;" vertex="1" parent="1">
          <mxGeometry x="1530" y="3060" width="80" height="40" as="geometry" />
        </mxCell>
        <mxCell id="behlOS7L0J96E-RqEoWm-120" value="Present" style="rounded=0;whiteSpace=wrap;html=1;" vertex="1" parent="1">
          <mxGeometry x="1395" y="3060" width="70" height="40" as="geometry" />
        </mxCell>
        <mxCell id="behlOS7L0J96E-RqEoWm-121" value="Data&lt;br&gt;(compressed)&amp;nbsp;" style="rounded=0;whiteSpace=wrap;html=1;" vertex="1" parent="1">
          <mxGeometry x="1320" y="3060" width="75" height="40" as="geometry" />
        </mxCell>
        <mxCell id="behlOS7L0J96E-RqEoWm-122" value="en" style="rounded=0;whiteSpace=wrap;html=1;" vertex="1" parent="1">
          <mxGeometry x="1245" y="3020" width="150" height="40" as="geometry" />
        </mxCell>
        <mxCell id="behlOS7L0J96E-RqEoWm-123" value="Name" style="rounded=0;whiteSpace=wrap;html=1;" vertex="1" parent="1">
          <mxGeometry x="1245" y="2980" width="365" height="40" as="geometry" />
        </mxCell>
        <mxCell id="behlOS7L0J96E-RqEoWm-124" value="de" style="rounded=0;whiteSpace=wrap;html=1;" vertex="1" parent="1">
          <mxGeometry x="1395" y="3020" width="215" height="40" as="geometry" />
        </mxCell>
        <mxCell id="behlOS7L0J96E-RqEoWm-125" value="Length&lt;br&gt;" style="rounded=0;whiteSpace=wrap;html=1;" vertex="1" parent="1">
          <mxGeometry x="1245" y="3060" width="75" height="40" as="geometry" />
        </mxCell>
        <mxCell id="behlOS7L0J96E-RqEoWm-126" value="Length&lt;br&gt;" style="rounded=0;whiteSpace=wrap;html=1;" vertex="1" parent="1">
          <mxGeometry x="1465" y="3060" width="65" height="40" as="geometry" />
        </mxCell>
        <mxCell id="behlOS7L0J96E-RqEoWm-127" value="Feature Scoped Properties&lt;br&gt;" style="rounded=0;whiteSpace=wrap;html=1;" vertex="1" parent="1">
          <mxGeometry x="980" y="3530" width="480" height="160" as="geometry" />
        </mxCell>
        <mxCell id="behlOS7L0J96E-RqEoWm-129" value="Present&lt;br&gt;" style="rounded=0;whiteSpace=wrap;html=1;direction=south;" vertex="1" parent="1">
          <mxGeometry x="980" y="3730" width="70" height="80" as="geometry" />
        </mxCell>
        <mxCell id="behlOS7L0J96E-RqEoWm-130" value="Data&lt;br&gt;" style="rounded=0;whiteSpace=wrap;html=1;" vertex="1" parent="1">
          <mxGeometry x="1050" y="3730" width="60" height="80" as="geometry" />
        </mxCell>
        <mxCell id="behlOS7L0J96E-RqEoWm-133" value="Rank" style="rounded=0;whiteSpace=wrap;html=1;" vertex="1" parent="1">
          <mxGeometry x="980" y="3690" width="130" height="40" as="geometry" />
        </mxCell>
        <mxCell id="behlOS7L0J96E-RqEoWm-140" value="Restrictions" style="rounded=0;whiteSpace=wrap;html=1;" vertex="1" parent="1">
          <mxGeometry x="1110" y="3690" width="350" height="40" as="geometry" />
        </mxCell>
        <mxCell id="behlOS7L0J96E-RqEoWm-142" value="SpeedLimits" style="rounded=0;whiteSpace=wrap;html=1;" vertex="1" parent="1">
          <mxGeometry x="1180" y="3730" width="280" height="40" as="geometry" />
        </mxCell>
        <mxCell id="behlOS7L0J96E-RqEoWm-143" value="Present&lt;br&gt;" style="rounded=0;whiteSpace=wrap;html=1;direction=south;" vertex="1" parent="1">
          <mxGeometry x="1110" y="3730" width="70" height="80" as="geometry" />
        </mxCell>
        <mxCell id="behlOS7L0J96E-RqEoWm-144" value="Present&lt;br&gt;" style="rounded=0;whiteSpace=wrap;html=1;direction=south;" vertex="1" parent="1">
          <mxGeometry x="1180" y="3770" width="70" height="40" as="geometry" />
        </mxCell>
        <mxCell id="behlOS7L0J96E-RqEoWm-145" value="Length" style="rounded=0;whiteSpace=wrap;html=1;direction=south;" vertex="1" parent="1">
          <mxGeometry x="1250" y="3770" width="70" height="40" as="geometry" />
        </mxCell>
        <mxCell id="behlOS7L0J96E-RqEoWm-146" value="RangPair" style="rounded=0;whiteSpace=wrap;html=1;direction=south;" vertex="1" parent="1">
          <mxGeometry x="1320" y="3770" width="70" height="40" as="geometry" />
        </mxCell>
        <mxCell id="behlOS7L0J96E-RqEoWm-147" value="Data" style="rounded=0;whiteSpace=wrap;html=1;direction=south;" vertex="1" parent="1">
          <mxGeometry x="1390" y="3770" width="70" height="40" as="geometry" />
        </mxCell>
      </root>
    </mxGraphModel>
  </diagram>
</mxfile>
